<svg width="12" height="12" viewBox="0 0 12 12" fill="none" xmlns="http://www.w3.org/2000/svg">
<path d="M1 4.35C1 2.49985 2.49985 1 4.35 1H7.65C9.50015 1 11 2.49985 11 4.35V7.65C11 9.50015 9.50015 11 7.65 11H4.35C2.49985 11 1 9.50015 1 7.65V4.35Z" fill="#5A5A5A"/>
<line x1="4" y1="11.5" x2="8" y2="11.5" stroke="#C0C0BF"/>
<line x1="4" y1="0.5" x2="8" y2="0.5" stroke="#555553"/>
<line x1="8" y1="10.5" x2="10" y2="10.5" stroke="#C0C0BF"/>
<line x1="2" y1="10.5" x2="4" y2="10.5" stroke="#C0C0BF"/>
<line x1="2" y1="1.5" x2="4" y2="1.5" stroke="#555553"/>
<line x1="8" y1="1.5" x2="10" y2="1.5" stroke="#555553"/>
<line x1="10.5" y1="8" x2="10.5" y2="10" stroke="#C0C0BF"/>
<line x1="1.5" y1="8" x2="1.5" y2="10" stroke="#555553"/>
<line x1="10.5" y1="2" x2="10.5" y2="4" stroke="#C0C0BF"/>
<line x1="1.5" y1="2" x2="1.5" y2="4" stroke="#555553"/>
<line x1="0.5" y1="4" x2="0.5" y2="8" stroke="#555553"/>
<line x1="11.5" y1="4" x2="11.5" y2="8" stroke="#C0C0BF"/>
</svg>
